<?xml version="1.0" encoding="utf-8"?>
<!-- Generator: Adobe Illustrator 26.0.2, SVG Export Plug-In . SVG Version: 6.00 Build 0)  -->
<svg version="1.1" id="Logo_with_clear_space" xmlns="http://www.w3.org/2000/svg" xmlns:xlink="http://www.w3.org/1999/xlink"
	 x="0px" y="0px" viewBox="0 0 537.1 226.8" style="enable-background:new 0 0 537.1 226.8;" xml:space="preserve">
<style type="text/css">
	.st0{fill:#FFFFFF;}
</style>
<path id="XMLID_2_" class="st0" d="M299.8,76.3c0,14.8-15,28.7-43.3,28.7c-31.8,0-42.8-16-42.8-31.8c0-17.1,12.5-27.7,12.5-42.5
	c0-4.4-1.4-8.6-5.4-12.9l0.4-0.6c9.7,1.7,17,11.2,17,20.8c0,13.8-10.6,23.9-10.6,39c0,11.8,7.6,24.7,29.6,24.7
	c17.7,0,28.9-13.4,28.9-26.8c0-14.2-9-21.2-13.1-23l0.2-0.6C290.7,52.9,299.8,63.6,299.8,76.3z M79.4,204.9
	c-0.1-0.8-0.4-7.1-0.4-11.3c0-5.4,0-46.3,0-46.3l6.7-2v-2.2H67v2.2l8.2,2v40.4l-34.4-44.6H25v2.2c0,0,1.1,0.2,1.9,0.4
	c2.6,0.6,5.1,2.6,5.8,3.3v50.8l-6.7,2v2.2h18.7v-2.2l-8.2-2v-46.7l40.2,51.8H79.4z M129.1,141.3c-16.4,0-31.3,12.5-31.3,32.3
	c0,19.6,14.7,32.2,31.4,32.2c16.5,0,31.4-12.4,31.4-33.9C160.6,156.9,149.3,141.3,129.1,141.3z M130.6,203
	c-14.7,0-22.4-17.6-22.4-31.6c0-14.1,6.1-27.3,19.8-27.3c12.8,0,22.3,15.3,22.3,31C150.2,189.1,144.3,203,130.6,203z M195.4,205.1
	h5.5l21.6-57.7l6.3-2v-2.2h-18.2v2.2l7.7,2l-17,46.4h-0.1l-17-46.4l7.7-2v-2.2h-24.6v2.2l6.4,2L195.4,205.1z M335.8,159.8
	c0-10.5-7.5-13.5-20.5-13.5v26.6h3.9C329,172.9,335.8,167.6,335.8,159.8z M429.4,204h26.7v-2.2l-8.5-2v-52.5l8.5-2v-2.2h-26.7v2.2
	l8.5,2v52.5l-8.5,2V204z M474.1,203.2c1.9,0.6,7.8,2.6,17.4,2.6c12.5,0,22.5-6.7,22.5-17.4c0-8.7-4.6-13.4-14.4-18.4
	c-2.4-1.2-4.9-2.6-7.2-3.7c-6.1-3.2-9.7-6.6-9.7-11.9c0-5.9,4.8-10.2,11.7-10.2c4.7,0,7.8,1.8,8.8,2.3l5.3,11.3h1.8l-1.4-14.1
	c-1.2-0.4-7.2-2.3-14.2-2.3c-13.7,0-20.2,7.2-20.2,16.5c0,8.6,7.2,13.9,14.4,17.6c2,1.1,4.1,2.1,6,3.1c6.1,3.2,9.9,6.7,9.9,12.5
	c0,7.6-6.7,12-14.1,12c-4.9,0-9.2-1.9-10.9-2.7l-5.7-13.1h-1.7L474.1,203.2z M224.6,204h19.9v-2.2l-8.8-2l6.2-16.8h23.4l6.2,16.8
	l-8.8,2v2.2h26v-2.2l-6.9-2l-21.9-58.5l-7.1,1.8l-21.2,56.7l-6.9,2V204z M253.5,151.4L253.5,151.4l10.1,27.1h-20.2L253.5,151.4z
	 M348.2,199.8l8.1,2.1v2.1h-16l-18-27.9h-7.1v23.7l8.2,2v2.2h-25v-2.2l7.1-2v-52.5l-7.1-2v-2.2c1.3,0,12.1-0.3,22.8-0.3
	c17.3,0,24.3,7.1,24.3,16.3c0,11.5-12.1,14.6-14.2,15.1L348.2,199.8z M369.6,146.4l-4.7,10.1h-1.8l1.4-13.4h49l1.4,13.4h-1.8
	l-4.7-10.1h-14.4v53.4l8.5,2v2.2h-26.7v-2.2l8.5-2v-53.4H369.6z M256,83.8l-8-76.1h16.7l-8,76.1H256z"/>
</svg>
