<svg id="Logo_with_clear_space" data-name="Logo with clear space" xmlns="http://www.w3.org/2000/svg" xmlns:xlink="http://www.w3.org/1999/xlink" viewBox="0 0 537.13 226.77"><defs><style>.cls-1,.cls-2,.cls-3{fill:#fff;}.cls-1{clip-rule:evenodd;}.cls-3{fill-rule:evenodd;}.cls-4{clip-path:url(#clip-path);}</style><clipPath id="clip-path" transform="translate(-152.38 -184.25)"><path class="cls-1" d="M647.55,230.19s-21.92,4.2-57.22-1.15c-31.53-4.8-61-25.6-63.83-44.79,0,0,12.77,17.41,62,24.87a315.56,315.56,0,0,0,39.37,2.44c14.6.07,19.63,18.63,19.63,18.63m42,15.13c-20.8-.38-96.24-2.88-96.24-2.88,7.07,11.12,14.36,30.2,14.36,51.71,0,52.33-22.81,90.91-52.3,116.87,49.8-10.46,87.91-65.52,87.91-124.78,0-4.83,0-9.7-.24-14l38.49-13.15c4.87-1.7,8-4.36,8-9C689.5,246.94,689.51,245.32,689.51,245.32Z"/></clipPath></defs><g id="Logo_with_tagline" data-name="Logo with tagline"><g id="Logo"><path id="Pharmaceutical_companies_of" data-name="Pharmaceutical companies of" class="cls-2" d="M212.76,325.86V338h-3v-5.17h-4.43V338h-3V325.86h3v4.38h4.43v-4.38Zm9.51,0L226.73,338H223.5l-.6-1.94h-4.46l-.6,1.94h-3.23l4.5-12.12Zm-1.63,2.89-1.5,5.11h3.07Zm8-2.89h5.46c1.27,0,2.84,0,4,1.24a4.08,4.08,0,0,1,1,2.69,3.25,3.25,0,0,1-2.49,3.35l2.8,4.84H236l-2.4-4.33h-1.91V338h-3Zm3,2.27v3.28h2.51a1.62,1.62,0,0,0,1.82-1.67c0-1.54-1.12-1.6-1.75-1.61Zm23.93-2.27V338h-2.9l.19-8.63,0-1.22-.1.43c-.16.68-.17.77-.31,1.28L250.21,338H247.6l-2.2-7.79-.53-2.16c0,1,0,1.16.1,2.31l.16,7.64h-2.94V325.86h4.43l1.85,6.8.43,1.94c.17-.84.19-.93.33-1.5l1.94-7.24Zm9.51,0L269.55,338h-3.22l-.6-1.94h-4.47l-.6,1.94h-3.22l4.49-12.12Zm-1.63,2.89L262,333.86H265Zm18.18,6.46a6.3,6.3,0,0,1-1.84,2.07,5.9,5.9,0,0,1-3.38,1.06c-3.21,0-5.8-2.33-5.8-6.44,0-3.58,2.44-6.42,5.87-6.42a5.63,5.63,0,0,1,3.53,1.21,5.93,5.93,0,0,1,1.58,1.94l-2.4,1.2a3.07,3.07,0,0,0-.91-1.26,2.63,2.63,0,0,0-1.66-.6c-2,0-3,1.82-3,3.85,0,2.66,1.36,4,3,4a2.91,2.91,0,0,0,2.62-1.8Zm2-9.35h9v2.35h-5.94v2.2h5.55v2.3h-5.55v2.88h6.47V338h-9.49Zm22.74,0v6.76a6.34,6.34,0,0,1-.7,3.44c-1.3,2.09-4,2.19-4.51,2.19a6.47,6.47,0,0,1-2.82-.65c-2.33-1.2-2.33-3.33-2.31-5v-6.76h3.05v7.55a3.32,3.32,0,0,0,.22,1.51,2.18,2.18,0,0,0,2,.83c2.06,0,2.06-1.41,2.08-2.35v-7.54Zm1.91,0h9.34v2.4h-3.14V338h-3v-9.73h-3.16Zm14.38,0V338h-3V325.86Zm13.94,9.35a6.3,6.3,0,0,1-1.84,2.07,5.9,5.9,0,0,1-3.38,1.06c-3.21,0-5.8-2.33-5.8-6.44,0-3.58,2.44-6.42,5.87-6.42a5.66,5.66,0,0,1,3.54,1.21,6.21,6.21,0,0,1,1.58,1.94l-2.41,1.2a3.07,3.07,0,0,0-.91-1.26,2.61,2.61,0,0,0-1.66-.6c-2,0-3,1.82-3,3.85,0,2.66,1.36,4,3,4a2.91,2.91,0,0,0,2.62-1.8Zm7.74-9.35L348.79,338h-3.23L345,336H340.5l-.6,1.94h-3.23l4.5-12.12Zm-1.63,2.89s-1.21,4.2-1.49,5.11h3.07Zm8-2.9h3v9.57h4.74V338h-7.76Zm25.42,9.36a6.3,6.3,0,0,1-1.84,2.07,5.9,5.9,0,0,1-3.38,1.06c-3.21,0-5.8-2.33-5.8-6.44,0-3.58,2.44-6.42,5.87-6.42a5.66,5.66,0,0,1,3.54,1.21,6.21,6.21,0,0,1,1.58,1.94l-2.41,1.2a3.07,3.07,0,0,0-.91-1.26,2.61,2.61,0,0,0-1.66-.6c-2,0-3,1.82-3,3.85,0,2.66,1.36,4,3,4a2.91,2.91,0,0,0,2.62-1.8Zm7.81,3.11c-3.85,0-6-2.95-6-6.45,0-3.28,2.07-6.39,6-6.39a6.66,6.66,0,0,1,2.21.37c3.71,1.28,3.95,5.31,3.95,6.14a6.58,6.58,0,0,1-2.3,5.06A5.82,5.82,0,0,1,383.92,338.32ZM386,328.9a2.93,2.93,0,0,0-2.12-.89c-1.84,0-3,1.61-3,3.81,0,2.88,1.61,3.94,3,3.94s3-1,3.07-3.57A4.71,4.71,0,0,0,386,328.9Zm20.26-3V338h-2.9l.18-8.63,0-1.22-.11.43c-.15.68-.17.77-.3,1.28L400.89,338h-2.61l-2.19-7.79-.53-2.16c.05,1,.05,1.16.1,2.31l.15,7.64h-2.93V325.86h4.43l1.85,6.8.43,1.94c.17-.84.19-.93.32-1.5l1.94-7.24Zm4,0h4.87c2,0,3.76,0,4.82,1.53a4.65,4.65,0,0,1,.69,2.49,4.43,4.43,0,0,1-.41,1.89c-1.05,2.16-3.28,2.21-4.93,2.24h-2v4h-3Zm3,2.23v3.68h1.82c1.14,0,2.51,0,2.51-1.91s-1.53-1.77-2.4-1.77Zm14.49-2.23L432.25,338H429l-.6-1.94H424l-.6,1.94h-3.22l4.49-12.12Zm-1.63,2.89c-.15.61-.33,1.25-.5,1.87-.25.9-.72,2.33-1,3.24h3.07Zm7.38-2.89h3l2.62,4.47c1,1.69,1.26,2.24,1.82,3.31l-.13-7.78h2.9V338h-3l-2.27-3.83a41.38,41.38,0,0,1-2.12-3.79l.08,7.62h-2.9Zm17.2,0V338h-3V325.86Zm4,0h9v2.35h-5.94v2.2h5.55v2.3h-5.55v2.88h6.47V338h-9.49Zm14,8.48a3.8,3.8,0,0,0,1.17.94,5,5,0,0,0,2.33.59c1.2,0,2.23-.57,2.23-1.41s-1.22-1.11-2.11-1.23c-.67-.09-1.34-.18-2-.31s-3.26-.69-3.26-3.3c0-3.12,2.78-4.05,4.88-4.05a7.41,7.41,0,0,1,5.35,2.3l-2.23,1.6a5.42,5.42,0,0,0-1.2-1,4.36,4.36,0,0,0-2-.53c-1.2,0-1.8.68-1.8,1.27,0,.92,1,1.06,1.55,1.13a23.07,23.07,0,0,1,3.7.72,3,3,0,0,1,2.1,3,4,4,0,0,1-1,2.57,5.79,5.79,0,0,1-4.54,1.63,6.48,6.48,0,0,1-5.53-2.45Zm-279.06-8.48h4.88c2,0,3.76,0,4.82,1.53a4.75,4.75,0,0,1,.69,2.49,4.29,4.29,0,0,1-.42,1.89c-1,2.16-3.27,2.21-4.92,2.24h-2v4h-3Zm3,2.23v3.68h1.82c1.13,0,2.51,0,2.51-1.91s-1.53-1.77-2.41-1.77Zm298.4,10.23c-3.84,0-6-2.95-6-6.45,0-3.28,2.07-6.39,6-6.39a6.61,6.61,0,0,1,2.21.37c3.71,1.28,3.95,5.31,3.95,6.14a6.58,6.58,0,0,1-2.3,5.06A5.82,5.82,0,0,1,491.19,338.32Zm2.09-9.42a2.93,2.93,0,0,0-2.12-.89c-1.84,0-3,1.61-3,3.81,0,2.88,1.62,3.94,3,3.94s3-1,3.07-3.57A4.71,4.71,0,0,0,493.28,328.9Zm15.9-3v2.34H502.9v2.54h5.78v2.35H502.9V338h-3V325.86Z" transform="translate(-152.38 -184.25)"/><path id="Johnson_Johnson_Signature" data-name="Johnson+Johnson Signature" class="cls-2" d="M202.21,352.46c0,.35-.82,2-1.88,4.92A37.24,37.24,0,0,0,198.16,370a84.39,84.39,0,0,0,1.42,11.35l-1.88,2.51c-3-3.62-4.85-7.72-4.85-14.74,0-10,6-16.86,9.12-16.86C202.15,352.23,202.21,352.29,202.21,352.46Zm83.36,27.91a8,8,0,0,1,.53,2.65c0,.93-.35,1.88-1,1.88-.46,0-.93-.53-.93-1.35A7,7,0,0,1,285.57,380.37Zm-85.48,4a60.66,60.66,0,0,1,.9,8.54c0,5.62-1.89,12.17-5.1,12.13-1.23,0-2.29-1.26-2.34-3.4C193.44,394.62,196.76,388.63,200.09,384.37Zm96.43-12.78a10.17,10.17,0,0,0-1.82,6c0,4.92,2.81,9.61,8.24,9.61,5.27,0,9-4.16,9-10a12.23,12.23,0,0,0-.17-2.61,13.92,13.92,0,0,0,3.1-2,3.15,3.15,0,0,1,1.64-.83c.53,0,.76.42.76,1.18v11.48c0,1.87.58,2.75,2,2.75a3.19,3.19,0,0,0,2.82-2.05c1.93-4,4.74-9.42,6-11.48.31-.46.53-.81.69-.81s.36.18.36.93v9.13c0,2.58,1.19,4.28,3.75,4.28s4-2.59,6.39-6.56a1.28,1.28,0,0,0,.16-.59.86.86,0,0,0-.92-.81c-.54,0-.84.52-2.58,2.45-.35.37-.7.87-1.34.87-.23,0-.42-.28-.42-.63V371.65c0-2.74-1.24-3.85-2.81-3.85-1.28,0-2.34.52-3.45,2.17a98.94,98.94,0,0,0-5.15,9.19c-.13.23-.3.58-.41.58s-.17-.16-.17-.58v-7.51c0-2.16-.58-3.85-2.88-3.85s-3.63,1.64-5.37,2.86a20.75,20.75,0,0,1-2.87,1.77c-1.17-3-3.34-4.5-5.16-4.46a2.93,2.93,0,0,0-3.1,3,4,4,0,0,0,2.74,3.86,7.3,7.3,0,0,0,2.88.41,4.16,4.16,0,0,0,.92-.06,10.63,10.63,0,0,1,.08,2c0,2.89-1.7,5.74-4.86,5.74s-5.21-3.16-5.21-6.78a10,10,0,0,1,2.14-6.62c.55-.59,1-.94,1-1.49,0-.28-.41-.33-.77-.33a15.09,15.09,0,0,0-6.37,1.86,38.43,38.43,0,0,0-7,5c-1.05-2.34-2.34-4.4-3-6-.24-.64-.4-1.39-.87-1.39s-.59.42-.88,1.21c-1.06,3.11-6.69,12.2-7.91,13.44-.1.15-.28.35-.33.35s-.2-.07-.2-.42V371.65c0-2.74-1.11-3.85-2.62-3.85A3.88,3.88,0,0,0,269,370c-1.93,2.92-4.28,7.2-5.39,9.31-.18.36-.34.46-.42.46s-.1-.23-.1-.58v-7.51c0-2.74-1.11-3.85-2.63-3.85a3.81,3.81,0,0,0-3.52,2.17c-2.46,4.15-6.56,10.54-7.32,11.59a1,1,0,0,1-.34.35c-.12,0-.19-.12-.19-.41v-9.85c0-2.74-1.1-3.85-2.62-3.85-2.11,0-3.27,1.93-4.05,3.16-1.06,1.7-2.45,4-3.56,6.09-.77,1.42-1.41,2.69-1.65,2.69s-.11-.52-.11-1.52v-7.83a21.87,21.87,0,0,0,6-14.64c0-3.17-1.39-4.94-3.56-4.94-4.05,0-7.14,6.33-7.14,13.83v6.09a15.67,15.67,0,0,1-5.8,2.16c-1.11-3.27-3.46-5-5.32-4.92a2.94,2.94,0,0,0-3.1,3c0,3.1,3,4.38,5.72,4.38h.76a8.91,8.91,0,0,1,.13,1.88c0,2.89-1.71,5.74-4.86,5.74s-5.22-3.16-5.22-6.78a10.05,10.05,0,0,1,2.16-6.62c.53-.59.95-1.11.95-1.49s-.42-.33-.77-.33c-2.22,0-7.13,3-13,8.84a126.49,126.49,0,0,1-1.11-13.7,51.52,51.52,0,0,1,1.22-10.43,11,11,0,0,0,.19-1.56c0-.47-.25-.71-.88-.71-4.74,0-15.17,7.55-15.17,18.85,0,8,2.94,11.88,8,16.86-3.09,5-5.58,10.88-5.58,16.15,0,3.82.89,6.68,3.7,6.68,5.85,0,10.24-12.17,10.24-21.19q0-4-.34-8.08c2.17-2.31,5.49-5.39,6.31-5.68a14.34,14.34,0,0,0-.58,3.74c0,4.92,2.82,9.61,8.25,9.61,5.11,0,8.95-4.16,8.95-10,0-.73-.05-1.39-.1-2.08a15.26,15.26,0,0,0,5.21-1.82v11.77a1.94,1.94,0,0,0,2,2.11c1.35,0,2.06-.94,3-3.09.82-1.76,3-5.81,4.39-8.21,1-1.87,1.64-3.1,2.11-3.1.12,0,.24.29.24,1v10c0,2.69,1.4,3.39,2.61,3.39a3.25,3.25,0,0,0,2.71-1.7c3.05-4.34,6.27-9.49,7.54-11.71.25-.4.53-.7.77-.7s.35.12.35.86v10.5c0,1.87.59,2.75,2.05,2.75a3.1,3.1,0,0,0,2.75-2.05c1.94-4,4.8-9.38,6-11.48.29-.46.58-.87.76-.87s.3.29.3,1.05v10c0,2.69,1.4,3.39,2.63,3.39,1.64,0,2.7-1.16,3.76-2.51,1.92-2.54,4.72-7,6.43-9.9a27.3,27.3,0,0,1,1.76,3.26c-1.41,1.71-2.82,3.64-2.82,5.68a3.23,3.23,0,0,0,3.11,3.47c2.68,0,5.14-2.59,5.14-6.15a12.6,12.6,0,0,0-.92-4.26C291.54,374.4,294.4,372.13,296.52,371.59ZM237.1,363c0-8.73,1.7-10.06,2.22-10.06,1,0,1,.58,1,3.92a20.09,20.09,0,0,1-3.26,10.41Zm-16.32,8.44a.76.76,0,0,1,.8-.82c.76,0,1.87.82,2.52,2.45C221.94,373.07,220.78,372.6,220.78,371.44Zm84.63,0a.77.77,0,0,1,.82-.82c.76,0,1.93.82,2.57,2.45-.24,0-.59.06-.82.06C306.59,373.13,305.41,372.48,305.41,371.44Zm47.18,9.7a17.42,17.42,0,0,1-2.63.13c-2.28,0-4-.9-4-2.17,0-.82.42-1.29,1.57-1.29C349.43,377.81,351,379.1,352.59,381.14Zm11.53.59A34.81,34.81,0,0,0,368,386c-3.09,5-5.56,10.88-5.56,16.15,0,3.82.88,6.68,3.7,6.68,5.83,0,10.24-12.17,10.24-21.19,0-2.69-.11-5.38-.36-8.08,2.17-2.31,5.49-5.39,6.32-5.68a14.34,14.34,0,0,0-.58,3.74c0,4.92,2.81,9.61,8.27,9.61,5.07,0,8.93-4.16,8.93-10a20.09,20.09,0,0,0-.11-2.08A15.12,15.12,0,0,0,404,373.3v11.77a1.93,1.93,0,0,0,2,2.11c1.38,0,2.08-.94,3.07-3.09.83-1.76,3.05-5.81,4.4-8.21,1.05-1.87,1.64-3.1,2.1-3.1.12,0,.24.29.24,1v10c0,2.69,1.39,3.39,2.62,3.39a3.27,3.27,0,0,0,2.71-1.7c3-4.34,6.26-9.49,7.54-11.71.23-.4.52-.7.76-.7s.35.12.35.86v10.5c0,1.87.59,2.75,2,2.75a3.13,3.13,0,0,0,2.76-2.05c1.93-4,4.8-9.38,6-11.48.3-.46.61-.87.79-.87s.29.29.29,1.05v10c0,2.69,1.38,3.39,2.61,3.39,1.66,0,2.71-1.16,3.76-2.51,1.93-2.54,4.74-7,6.43-9.9a25.94,25.94,0,0,1,1.77,3.26c-1.43,1.71-2.81,3.64-2.81,5.68a3.23,3.23,0,0,0,3.1,3.47c2.69,0,5.13-2.59,5.13-6.15a11.94,11.94,0,0,0-.93-4.26c2.41-2.37,5.29-4.64,7.39-5.18a10.17,10.17,0,0,0-1.82,6c0,4.92,2.81,9.61,8.24,9.61,5.28,0,8.95-4.16,8.95-10a13.57,13.57,0,0,0-.15-2.61,14,14,0,0,0,3.11-2,3.1,3.1,0,0,1,1.62-.83c.54,0,.77.42.77,1.18v11.48c0,1.87.59,2.75,2.05,2.75a3.17,3.17,0,0,0,2.81-2.05c1.92-4,4.73-9.42,6-11.48.32-.46.54-.81.71-.81s.36.18.36.93v9.13c0,2.58,1.16,4.28,3.74,4.28s4.06-2.59,6.39-6.56a1.45,1.45,0,0,0,.17-.59.86.86,0,0,0-.93-.81c-.54,0-.84.52-2.59,2.45-.36.37-.7.87-1.33.87-.25,0-.42-.28-.42-.63V371.65c0-2.74-1.23-3.85-2.81-3.85-1.28,0-2.34.52-3.45,2.17a98.94,98.94,0,0,0-5.15,9.19c-.13.23-.28.58-.43.58s-.15-.16-.15-.58v-7.51c0-2.16-.59-3.85-2.88-3.85s-3.63,1.64-5.38,2.86a20.18,20.18,0,0,1-2.88,1.77c-1.16-3-3.34-4.5-5.14-4.46a2.94,2.94,0,0,0-3.11,3,4,4,0,0,0,2.74,3.86,7.35,7.35,0,0,0,2.89.41,4.35,4.35,0,0,0,.93-.06,11.54,11.54,0,0,1,.06,2c0,2.89-1.71,5.74-4.87,5.74s-5.2-3.16-5.2-6.78a10.05,10.05,0,0,1,2.16-6.62c.53-.59.93-.94.93-1.49,0-.28-.4-.33-.75-.33a15.14,15.14,0,0,0-6.38,1.86,38.78,38.78,0,0,0-7,5c-1.05-2.34-2.32-4.4-3-6-.24-.64-.41-1.39-.88-1.39s-.59.42-.87,1.21c-1.07,3.11-6.68,12.2-7.91,13.44-.11.15-.29.35-.36.35s-.16-.07-.16-.42V371.65c0-2.74-1.12-3.85-2.64-3.85-1.29,0-2.39.52-3.47,2.17-1.92,2.92-4.26,7.2-5.37,9.31-.17.36-.34.46-.4.46s-.13-.23-.13-.58v-7.51c0-2.74-1.1-3.85-2.64-3.85a3.78,3.78,0,0,0-3.5,2.17c-2.47,4.15-6.57,10.54-7.32,11.59a.9.9,0,0,1-.35.35c-.11,0-.18-.12-.18-.41v-9.85c0-2.74-1.12-3.85-2.64-3.85-2.11,0-3.27,1.93-4,3.16-1.05,1.7-2.45,4-3.57,6.09a10.37,10.37,0,0,1-1.62,2.69c-.13,0-.13-.52-.13-1.52v-7.83a21.94,21.94,0,0,0,6-14.64c0-3.17-1.42-4.94-3.58-4.94-4,0-7.14,6.33-7.14,13.83v6.09a15.8,15.8,0,0,1-5.8,2.16c-1.11-3.27-3.45-5-5.31-4.92a2.93,2.93,0,0,0-3.11,3c0,3.1,3,4.38,5.73,4.38h.76a9.64,9.64,0,0,1,.12,1.88c0,2.89-1.71,5.74-4.87,5.74s-5.19-3.16-5.19-6.78a10.16,10.16,0,0,1,2.15-6.62,3,3,0,0,0,.94-1.49c0-.28-.4-.33-.76-.33-2.22,0-7.15,3-13,8.84a126.49,126.49,0,0,1-1.11-13.7,49.33,49.33,0,0,1,1.25-10.43A13.25,13.25,0,0,0,376,351c0-.47-.23-.71-.88-.71-4.74,0-15.15,7.55-15.15,18.85a19.64,19.64,0,0,0,2.74,10.77,8.32,8.32,0,0,0-1.64-.12,21.47,21.47,0,0,0-4.73.71v-1.17c0-2.51-.59-6-1.66-7.15a.58.58,0,0,0-.45-.19,4.06,4.06,0,0,0-1.7.59c-.71.36-1.4.72-1.4.93a.93.93,0,0,0,.17.55,8.47,8.47,0,0,1,1.92,4.49,9.59,9.59,0,0,0-7.24-2.87c-3.51,0-4.57,1.57-4.57,3.17,0,3.05,4,4.58,9.14,4.58a13.72,13.72,0,0,0,3-.43c0,.94.11,1.77.11,2.46,0,1,.18,1.77.83,1.77,1,0,1.58-2,1.68-4.85a22,22,0,0,1,5.29-.88A15.42,15.42,0,0,1,364.12,381.73Zm9.76-29.27c0,.35-.8,2-1.87,4.92A37,37,0,0,0,369.85,370c0,3.1.78,7.2,1.4,11.35l-1.87,2.51c-3-3.62-4.85-7.72-4.85-14.74,0-10,6-16.86,9.12-16.86C373.84,352.23,373.88,352.29,373.88,352.46Zm83.37,27.91a7.54,7.54,0,0,1,.53,2.65c0,.93-.36,1.88-1,1.88-.46,0-.94-.53-.94-1.35A7,7,0,0,1,457.25,380.37Zm-85.46,4a63.33,63.33,0,0,1,.87,8.54c0,5.62-1.86,12.17-5.08,12.13-1.24,0-2.29-1.26-2.36-3.4C365.11,394.62,368.45,388.63,371.79,384.37Zm37-21.37c0-8.73,1.68-10.06,2.23-10.06.92,0,1.05.58,1.05,3.92a19.92,19.92,0,0,1-3.28,10.41Zm-16.32,8.44a.76.76,0,0,1,.81-.82c.76,0,1.88.82,2.51,2.45C393.62,373.07,392.46,372.6,392.46,371.44Zm84.63,0a.76.76,0,0,1,.83-.82c.75,0,1.93.82,2.57,2.45-.23,0-.59.06-.83.06C478.26,373.13,477.09,372.48,477.09,371.44Z" transform="translate(-152.38 -184.25)"/><path id="Wordmark" class="cls-2" d="M152.38,320.34v-6.76c6.64-2.45,11.54-8.39,11.54-22V231.64h10.25v59.22C174.17,308.92,163.56,319.06,152.38,320.34Zm59.79-24.7c-16.32,0-23.9-7.11-23.9-18.53,0-16.68,15.62-21.57,35.08-23.55v-3.84c0-9.68-5.83-12.48-13.86-12.48a35.19,35.19,0,0,0-15.16,4l-2.44-6.06a41.45,41.45,0,0,1,19.23-4.66c11.65,0,21.91,5,21.91,20.39v40.34C228.25,293.89,220.9,295.64,212.17,295.64Zm11.18-36.83c-15.84,2-25.29,5.36-25.29,18.06,0,9.09,5.59,12.82,14.93,12.82,4,0,7.8-.7,10.36-2.1Zm61.54,35.66V249.36c0-5.82-2.44-12.24-13.17-12.24-5.83,0-8.62.82-11.89,2.22v55.13H249.58V234.92c5.58-2.69,12.93-4.44,23-4.44,17.47,0,22.61,9.67,22.61,18.65v45.34Zm39,.92c-6.76,0-12.7-1.75-16.08-4.3l2.79-6.77c2.22,1.87,6.65,3.74,12.25,3.74,7,0,11.65-4.79,11.65-10.84,0-6.53-3.5-9.44-10.37-12-12.24-4.55-14.7-11.08-14.7-17.61,0-9.32,7.35-17.25,18.78-17.25a26.27,26.27,0,0,1,14.68,4.31l-2.68,6.17a18,18,0,0,0-10.49-3.48c-6.87,0-10.49,4.54-10.49,9.91,0,6.06,4.43,9,10.49,11.3C342,263.24,345,269.76,345,277,345,286.55,336.76,295.39,323.93,295.39Zm45.92,0c-6.76,0-12.71-1.75-16.08-4.3l2.79-6.77c2.22,1.87,6.65,3.74,12.24,3.74,7,0,11.66-4.79,11.66-10.84,0-6.53-3.51-9.44-10.38-12-12.23-4.55-14.68-11.08-14.68-17.61,0-9.32,7.34-17.25,18.76-17.25a26.28,26.28,0,0,1,14.69,4.31l-2.69,6.17a17.91,17.91,0,0,0-10.49-3.48c-6.87,0-10.48,4.54-10.48,9.91,0,6.06,4.43,9,10.48,11.3,12.25,4.67,15.27,11.19,15.27,18.43C390.94,286.55,382.67,295.39,369.85,295.39ZM411.92,267c1.17,14.21,7.81,21.21,19.12,21.21,7.11,0,12.23-1.75,15.5-3.62l2.68,6.77c-3.84,2.31-10.49,4.31-19,4.31-16.43,0-28-10.38-28-32.76,0-21.32,10.5-32.4,25.29-32.4,15,0,24.13,9.8,23.9,30.77Zm15.27-29.85c-9.08,0-15.85,7.35-15.61,24.37l30.07-4.56C441.65,242.72,436.17,237.12,427.19,237.12Zm73.66,57.35V249.36c0-5.82-2.45-12.24-13.17-12.24-5.82,0-8.62.82-11.89,2.22v55.13H465.54V234.92c5.59-2.69,12.93-4.44,23-4.44,17.47,0,22.61,9.67,22.61,18.65v45.34Z" transform="translate(-152.38 -184.25)"/><path class="cls-3" d="M647.55,230.19s-21.92,4.2-57.22-1.15c-31.53-4.8-61-25.6-63.83-44.79,0,0,12.77,17.41,62,24.87a315.56,315.56,0,0,0,39.37,2.44c14.6.07,19.63,18.63,19.63,18.63m42,15.13c-20.8-.38-96.24-2.88-96.24-2.88,7.07,11.12,14.36,30.2,14.36,51.71,0,52.33-22.81,90.91-52.3,116.87,49.8-10.46,87.91-65.52,87.91-124.78,0-4.83,0-9.7-.24-14l38.49-13.15c4.87-1.7,8-4.36,8-9C689.5,246.94,689.51,245.32,689.51,245.32Z" transform="translate(-152.38 -184.25)"/><g class="cls-4"><rect class="cls-2" x="374.12" width="163.01" height="226.77"/></g></g></g></svg>